<?xml version="1.0" ?>

<!-- Uploaded to: SVG Repo, www.svgrepo.com, Generator: SVG Repo Mixer Tools -->
<svg width="800px" height="800px" viewBox="0 0 512 512" id="Layer_1" version="1.1" xml:space="preserve" xmlns="http://www.w3.org/2000/svg" xmlns:xlink="http://www.w3.org/1999/xlink">

<style type="text/css">
	.st0{fill:#fe7624;}
	.st1{fill:#ffffff;}
</style>

<g>

<path class="st1" d="M305.9,259.2c20.3,0,36.7-16.3,36.9-36.5h-36.9v-37.4c-20.4,0-36.9,16.5-36.9,36.9   C268.9,242.6,285.5,259.2,305.9,259.2z"/>

<rect class="st1" height="73.9" width="73.9" x="169.2" y="185.3"/>

<path class="st0" d="M98.8,409.4h314.5V102.6H98.8V409.4z M236.4,375c0,4.8-3.9,8.7-8.7,8.7h-10.6c-4.8,0-8.7-3.9-8.7-8.7v-35.7   c0-4.8,3.9-8.7,8.7-8.7h10.6c4.8,0,8.7,3.9,8.7,8.7V375z M303.5,375c0,4.8-3.9,8.7-8.7,8.7h-10.6c-4.8,0-8.7-3.9-8.7-8.7v-35.7   c0-4.8,3.9-8.7,8.7-8.7h10.6c4.8,0,8.7,3.9,8.7,8.7V375z M370.5,375c0,4.8-3.9,8.7-8.7,8.7h-10.6c-4.8,0-8.7-3.9-8.7-8.7v-26.2   c0-4.8,3.9-8.7,8.7-8.7h10.6c4.8,0,8.7,3.9,8.7,8.7V375z M141.5,153.8c0-4.8,3.9-8.6,8.6-8.6h211.7c4.8,0,8.6,3.9,8.6,8.6v136.8   c0,4.8-3.9,8.6-8.6,8.6H150.1c-4.8,0-8.6-3.9-8.6-8.6V153.8z M141.5,348.8c0-4.8,3.9-8.7,8.7-8.7h10.6c4.8,0,8.7,3.9,8.7,8.7V375   c0,4.8-3.9,8.7-8.7,8.7h-10.6c-4.8,0-8.7-3.9-8.7-8.7V348.8z"/>

<path class="st1" d="M98.8,450.2c0,15.4,12.4,27.8,27.8,27.8h258.9c15.4,0,27.8-12.4,27.8-27.8v-26.8H98.8V450.2z M256,437.8   c7.1,0,12.8,5.7,12.8,12.8s-5.7,12.8-12.8,12.8s-12.8-5.7-12.8-12.8S248.9,437.8,256,437.8z"/>

<path class="st1" d="M385.4,34H126.6c-15.4,0-27.8,12.4-27.8,27.8v26.8h314.5V61.8C413.2,46.4,400.8,34,385.4,34z M285,68.3h-58   c-3.9,0-7-3.1-7-7s3.1-7,7-7h58c3.9,0,7,3.1,7,7S288.8,68.3,285,68.3z"/>

</g>

</svg>