<?xml version="1.0" ?>

<!-- Uploaded to: SVG Repo, www.svgrepo.com, Generator: SVG Repo Mixer Tools -->
<svg width="800px" height="800px" viewBox="0 0 512 512" id="Layer_1" version="1.1" xml:space="preserve" xmlns="http://www.w3.org/2000/svg" xmlns:xlink="http://www.w3.org/1999/xlink">

<style type="text/css">
	.st0{fill:#fe7624;}
	.st1{fill:#ffffff;}
</style>

<g>

<path class="st1" d="M147.9,236.5v-96.2c-20.8,6-36.1,25.3-36.1,48.1C111.9,211.2,127.1,230.5,147.9,236.5z"/>

<path class="st1" d="M401.2,188.4c0-22.8-15.2-42-36.1-48.1v96.2C386,230.5,401.2,211.2,401.2,188.4z"/>

<path class="st0" d="M176.2,269.3h44.4v25.9h70.8v-25.9h45.5c7.9,0,14.2-6.4,14.2-14.2V121.8c0-7.9-6.4-14.2-14.2-14.2h-73.4v0   V71.2c0-0.3,0-0.6-0.1-0.9c11.2-3,19.4-13.3,19.4-25.4c0-14.6-11.8-26.4-26.4-26.4s-26.4,11.8-26.4,26.4c0,12.2,8.2,22.4,19.4,25.4   c0,0.3-0.1,0.6-0.1,0.9v36.4v0h-73.4c-7.9,0-14.2,6.4-14.2,14.2v133.3C161.9,262.9,168.3,269.3,176.2,269.3z M231.5,241.5h-23.9   v-40.2h23.9V241.5z M304.6,241.5h-23.9v-40.2h23.9V241.5z M272.2,153.1c0.8-8.2,7.4-14.8,15.6-15.6c11-1.1,20.2,8.1,19.1,19.1   c-0.8,8.2-7.4,14.8-15.6,15.6C280.3,173.3,271.1,164.1,272.2,153.1z M245.5,201.3h21.1v40.2h-21.1V201.3z M206.2,153.1   c0.8-8.2,7.4-14.8,15.6-15.6c11-1.1,20.2,8.1,19.1,19.1c-0.8,8.2-7.4,14.8-15.6,15.6C214.3,173.3,205.1,164.1,206.2,153.1z"/>

<rect class="st1" height="145.9" width="189.2" x="161.9" y="309.3"/>

<polygon class="st0" points="147.9,309.3 109.7,309.3 109.7,493.5 161.9,493.5 161.9,469.2 147.9,469.2  "/>

<polygon class="st0" points="365.1,309.3 365.1,469.2 350.1,469.2 350.1,493.5 402.3,493.5 402.3,309.3  "/>

</g>

</svg>