<?xml version="1.0" ?>

<!-- Uploaded to: SVG Repo, www.svgrepo.com, Generator: SVG Repo Mixer Tools -->
<svg width="800px" height="800px" viewBox="0 0 512 512" id="Layer_1" version="1.1" xml:space="preserve" xmlns="http://www.w3.org/2000/svg" xmlns:xlink="http://www.w3.org/1999/xlink">

<style type="text/css">
	.st0{fill:#fe7624;}
	.st1{fill:#ffffff;}
</style>

<g>

<path class="st1" d="M453.8,262H58.2c-15.2,0-27.5,12.3-27.5,27.5v168.1c0,15.2,12.3,27.5,27.5,27.5h395.6   c15.2,0,27.5-12.3,27.5-27.5V289.4C481.3,274.3,469,262,453.8,262z M115.5,438.8H68.1v-47.4h47.4V438.8z M115.5,355.8H68.1v-47.4   h47.4V355.8z M197.6,438.8h-47.4v-47.4h47.4V438.8z M197.6,355.8h-47.4v-47.4h47.4V355.8z M279.7,438.8h-47.4v-47.4h47.4V438.8z    M279.7,355.8h-47.4v-47.4h47.4V355.8z M361.8,438.8h-47.4v-47.4h47.4V438.8z M361.8,355.8h-47.4v-47.4h47.4V355.8z M443.9,438.8   h-47.4v-47.4h47.4V438.8z M443.9,355.8h-47.4v-47.4h47.4V355.8z"/>

<path class="st0" d="M482.3,29.5c-3.6-1.4-7.7,0.4-9,4c-4,10.5-13.8,19.5-29,26.9c-28,13.5-62.3,18.2-104.9,14.2   c-20.4-1.9-41.1-5.6-61.2-9.1c-15.8-2.8-32.1-5.6-48.3-7.7c-46.1-5.8-82-3.2-112.9,8.3c-6.7,2.5-15.3,6.2-22.2,12.6   c-7.6,7.2-11.7,16.9-11,26c0.9,10.8,8.2,20.8,19.7,26.7c8.1,4.2,16.8,5.9,25.1,7.6c1.1,0.2,2.1,0.4,3.2,0.6   c29.2,5.9,52.8,15.3,72.1,28.6c19.3,13.3,33.8,30.6,41.8,49.7h-65.3V248h151.2v-30.1h-70.9c-8.4-23.6-25.6-45.2-48.9-61.2   c-20.9-14.4-46.1-24.4-77.2-30.7c-1.1-0.2-2.2-0.4-3.2-0.6c-7.8-1.5-15.1-3-21.4-6.3c-5.5-2.9-11.7-8.4-12.2-15.4   c-0.4-4.9,2.1-10.4,6.7-14.7c5-4.7,12-7.7,17.5-9.7c28.7-10.6,62.5-13,106.3-7.5c15.9,2,32,4.8,47.6,7.6   c20.3,3.6,41.3,7.3,62.3,9.2c45.3,4.2,82-0.8,112.3-15.5c18.6-9,30.7-20.6,36-34.5C487.7,34.9,485.9,30.8,482.3,29.5z"/>

</g>

</svg>