<?xml version="1.0" standalone="no"?>
<!DOCTYPE svg PUBLIC "-//W3C//DTD SVG 20010904//EN"
 "http://www.w3.org/TR/2001/REC-SVG-20010904/DTD/svg10.dtd">
<svg version="1.0" xmlns="http://www.w3.org/2000/svg"
 width="450.000000pt" height="156.000000pt" viewBox="0 0 450.000000 156.000000"
 preserveAspectRatio="xMidYMid meet">

<g transform="translate(0.000000,156.000000) scale(0.100000,-0.100000)"
fill="#000000" stroke="none">
<path d="M0 780 l0 -780 2250 0 2250 0 0 780 0 780 -2250 0 -2250 0 0 -780z
m801 360 c64 -12 162 -58 204 -95 l30 -27 -59 6 c-54 6 -107 24 -260 89 -50
21 -55 26 -35 30 42 8 65 7 120 -3z m-206 -85 c33 -9 93 -31 135 -50 113 -51
209 -76 294 -78 68 -2 76 -4 85 -25 6 -13 11 -25 11 -27 0 -3 -37 -5 -83 -5
-89 0 -157 16 -247 57 -111 51 -194 75 -279 81 l-84 5 34 28 c39 33 54 34 134
14z m10 -157 c22 -5 86 -30 143 -55 125 -54 223 -76 320 -71 69 3 73 2 79 -20
3 -13 2 -26 -2 -30 -3 -4 -42 -9 -86 -11 -91 -4 -172 17 -309 79 -114 52 -247
77 -339 63 -36 -6 -67 -9 -69 -8 -1 1 3 16 9 33 9 26 17 32 47 35 49 6 157 -2
207 -15z m1095 -26 c64 -31 89 -125 54 -198 -21 -44 -60 -64 -124 -64 -100 0
-145 49 -138 151 5 64 23 93 73 115 42 18 94 17 135 -4z m227 -70 l62 -84 3
84 c3 82 3 83 31 86 l27 3 0 -140 0 -141 -28 0 c-23 0 -37 13 -87 83 l-60 82
-3 -82 -3 -83 -29 0 -30 0 0 133 c0 74 3 137 7 141 20 19 53 -5 110 -82z m233
-27 l0 -115 70 0 c68 0 70 -1 70 -25 l0 -25 -100 0 -100 0 0 133 c0 74 3 137
7 140 3 4 17 7 30 7 23 0 23 -1 23 -115z m230 -25 l0 -140 -30 0 -30 0 0 133
c0 74 3 137 7 140 3 4 17 7 30 7 23 0 23 0 23 -140z m265 110 c0 -22 -5 -25
-42 -28 l-43 -3 0 -110 0 -109 -30 0 -30 0 0 110 0 110 -45 0 c-43 0 -45 1
-45 30 l0 31 118 -3 117 -3 0 -25z m95 -110 l0 -140 -30 0 -30 0 0 133 c0 74
3 137 7 140 3 4 17 7 30 7 l23 0 0 -140z m250 122 c64 -31 89 -125 54 -198
-21 -44 -60 -64 -124 -64 -100 0 -145 49 -138 151 5 64 23 93 73 115 42 18 94
17 135 -4z m227 -70 l62 -84 3 84 c3 82 3 83 31 86 l27 3 0 -140 0 -141 -28 0
c-23 0 -37 13 -87 83 l-60 82 -3 -82 -3 -83 -29 0 -30 0 0 133 c0 74 3 137 7
141 20 19 53 -5 110 -82z m343 73 c28 -15 50 -42 50 -64 0 -20 -55 -12 -68 10
-18 28 -87 24 -87 -6 0 -15 14 -24 62 -40 81 -28 93 -39 93 -85 0 -30 -6 -43
-27 -60 -24 -19 -38 -21 -97 -18 -57 3 -72 8 -87 27 -29 36 -25 61 10 61 20 0
30 -6 34 -19 9 -37 112 -32 105 6 -2 10 -21 23 -43 31 -109 37 -135 64 -115
116 19 50 110 72 170 41z m270 -125 l0 -140 -30 0 -30 0 0 133 c0 74 3 137 7
140 3 4 17 7 30 7 l23 0 0 -140z m250 122 c64 -31 89 -125 54 -198 -21 -44
-60 -64 -124 -64 -100 0 -145 49 -138 151 5 64 23 93 73 115 42 18 94 17 135
-4z m-3455 -137 c28 -9 82 -32 120 -50 96 -44 205 -69 297 -68 l76 1 -21 -50
c-31 -74 -114 -159 -195 -200 -64 -31 -72 -33 -177 -33 -98 0 -116 3 -167 27
-67 31 -150 105 -183 163 -27 47 -50 113 -59 172 -6 41 -5 43 26 52 51 16 225
7 283 -14z m3095 -95 c0 -27 -3 -30 -30 -30 -27 0 -30 3 -30 30 0 27 3 30 30
30 27 0 30 -3 30 -30z"/>
<path d="M1575 815 c-28 -27 -33 -80 -14 -118 16 -30 28 -37 70 -37 60 0 92
57 69 125 -20 59 -82 74 -125 30z"/>
<path d="M2875 815 c-28 -27 -33 -80 -14 -118 16 -30 28 -37 70 -37 60 0 92
57 69 125 -20 59 -82 74 -125 30z"/>
<path d="M3965 815 c-28 -27 -33 -80 -14 -118 16 -30 28 -37 70 -37 60 0 92
57 69 125 -20 59 -82 74 -125 30z"/>
</g>
</svg>
